<?xml version="1.0" standalone="no"?>
<!DOCTYPE svg PUBLIC "-//W3C//DTD SVG 20010904//EN"
 "http://www.w3.org/TR/2001/REC-SVG-20010904/DTD/svg10.dtd">
<svg version="1.0" xmlns="http://www.w3.org/2000/svg"
 width="804.000000pt" height="343.000000pt" viewBox="0 0 804.000000 343.000000"
 preserveAspectRatio="xMidYMid meet">

<g transform="translate(0.000000,343.000000) scale(0.100000,-0.100000)"
fill="#000000" stroke="none">
<path d="M1459 2721 c-186 -79 -323 -228 -374 -406 -9 -33 -20 -67 -24 -75
-11 -25 -5 -231 9 -298 9 -45 11 -100 7 -183 -6 -110 -5 -119 11 -119 35 0 59
29 76 92 9 35 20 70 23 78 3 8 7 24 8 35 9 78 65 266 85 289 5 4 13 5 18 2 7
-4 2 -38 -13 -94 -28 -101 -59 -271 -51 -279 13 -13 174 97 240 162 125 124
185 254 193 420 6 116 -16 229 -66 340 -35 77 -43 79 -142 36z"/>
<path d="M4104 2720 l-29 -5 -3 -569 c-2 -449 0 -571 10 -578 15 -9 149 -11
172 -2 9 3 16 17 16 30 0 31 25 41 48 21 10 -9 44 -28 76 -43 53 -24 66 -26
159 -22 90 4 109 8 162 35 158 81 244 259 216 447 -22 153 -104 272 -227 332
-44 21 -75 29 -139 32 -98 5 -164 -13 -229 -63 -32 -24 -47 -30 -55 -22 -7 7
-11 74 -11 198 0 137 -3 189 -12 197 -15 12 -112 19 -154 12z m501 -529 c50
-22 100 -78 116 -129 6 -22 10 -73 8 -114 -8 -141 -84 -217 -219 -217 -82 1
-132 21 -176 72 -86 102 -81 261 13 349 30 28 99 62 111 54 5 -3 14 -1 22 4
18 12 72 3 125 -19z"/>
<path d="M5981 2701 c-12 -22 -15 -1099 -3 -1118 10 -15 179 -20 194 -5 15 15
12 1110 -3 1128 -8 10 -37 14 -95 14 -71 0 -85 -3 -93 -19z"/>
<path d="M6347 2713 c-4 -3 -7 -260 -7 -569 0 -556 0 -563 20 -574 20 -11 127
-13 163 -3 16 4 17 40 17 573 0 509 -2 568 -16 574 -21 8 -169 8 -177 -1z"/>
<path d="M2515 2686 c-75 -31 -155 -113 -179 -182 -9 -26 -16 -79 -16 -119 0
-60 5 -82 31 -134 48 -95 116 -140 316 -205 135 -45 186 -91 186 -169 0 -92
-66 -147 -176 -147 -65 0 -139 34 -211 95 -29 25 -61 45 -71 45 -41 0 -115
-80 -115 -124 0 -21 55 -82 104 -115 180 -121 415 -115 573 15 85 70 126 219
91 333 -37 120 -113 184 -283 241 -127 42 -157 55 -195 87 -86 72 -63 183 45
213 75 21 141 0 228 -72 32 -27 53 -37 66 -33 27 8 111 101 111 121 0 28 -82
99 -156 135 -63 31 -77 34 -179 37 -98 2 -116 0 -170 -22z"/>
<path d="M5332 2384 c-196 -67 -315 -245 -299 -449 14 -178 120 -317 280 -366
56 -17 87 -20 175 -17 94 3 115 7 172 34 75 35 140 92 140 122 0 25 -53 88
-82 97 -14 5 -31 -2 -56 -22 -65 -52 -102 -66 -177 -67 -38 0 -87 5 -108 13
-53 18 -107 68 -129 119 -32 73 -37 71 294 72 159 0 294 3 300 6 13 8 4 159
-11 199 -72 182 -176 263 -352 274 -72 5 -97 2 -147 -15z m201 -168 c58 -24
122 -114 102 -145 -7 -12 -377 -16 -388 -5 -17 17 50 110 101 141 43 27 133
31 185 9z"/>
<path d="M6944 2385 c-162 -51 -268 -194 -281 -380 -16 -237 117 -420 334
-455 99 -17 194 8 274 71 41 32 49 29 49 -17 0 -38 17 -45 115 -43 60 1 67 4
75 25 13 34 13 750 0 774 -9 17 -21 20 -85 20 -92 0 -105 -5 -105 -39 0 -15
-3 -30 -6 -34 -3 -3 -31 12 -63 33 -31 21 -74 43 -96 49 -53 14 -159 12 -211
-4z m246 -197 c162 -82 167 -340 10 -427 -33 -19 -59 -25 -106 -25 -89 0 -149
33 -191 104 -30 48 -33 62 -33 130 1 110 46 190 128 226 47 21 142 17 192 -8z"/>
<path d="M3182 2368 c-6 -9 -9 -113 -8 -293 3 -315 9 -350 72 -424 94 -110
294 -137 414 -56 l51 34 11 -29 c5 -17 15 -31 21 -31 74 -8 161 -4 172 8 11
11 14 83 15 382 0 223 -4 379 -10 395 -9 25 -12 26 -92 26 -46 0 -88 -4 -95
-8 -9 -6 -13 -73 -13 -257 -1 -181 -5 -257 -14 -279 -30 -70 -117 -114 -198
-101 -51 9 -105 56 -118 103 -5 21 -10 147 -10 283 0 216 -2 248 -16 253 -30
12 -171 7 -182 -6z"/>
<path d="M414 2290 c-13 -13 7 -154 30 -218 67 -186 249 -302 497 -319 l99 -6
0 34 c0 58 -28 157 -67 235 -65 134 -183 233 -318 269 -67 17 -226 20 -241 5z"/>
<path d="M622 1674 c-182 -48 -281 -194 -270 -394 6 -101 28 -151 112 -252 92
-110 518 -484 593 -520 28 -13 46 -1 229 148 255 207 431 389 476 492 46 102
42 251 -9 344 -31 56 -103 128 -159 156 -96 49 -225 49 -318 1 -67 -35 -145
-97 -173 -141 l-27 -40 -16 23 c-55 84 -149 153 -247 180 -79 22 -119 23 -191
3z"/>
<path d="M5098 1332 l-58 -3 0 -124 c0 -68 -4 -126 -9 -130 -5 -3 -31 6 -58
21 -41 22 -58 25 -113 22 -110 -7 -182 -56 -229 -158 -32 -71 -38 -142 -17
-213 33 -113 117 -184 234 -194 50 -5 69 -1 115 20 52 24 56 24 80 8 18 -11
41 -15 81 -13 l56 4 0 378 c0 294 -3 379 -12 381 -7 2 -39 3 -70 1z m-107
-378 c34 -32 49 -74 47 -129 -1 -50 -19 -85 -58 -119 -26 -22 -41 -26 -90 -26
-52 0 -64 4 -95 31 -67 59 -72 164 -12 234 53 61 149 65 208 9z"/>
<path d="M6357 1328 c-26 -20 -38 -64 -26 -95 13 -35 26 -43 71 -43 43 0 68
27 68 75 0 57 -69 96 -113 63z"/>
<path d="M2300 946 c0 -423 -8 -385 85 -376 l50 5 3 134 c1 79 7 140 14 148 7
9 42 13 122 13 61 0 117 4 124 9 9 5 12 25 10 62 l-3 54 -119 3 c-71 2 -125 7
-134 14 -10 9 -13 33 -10 92 l3 81 142 3 c140 2 143 3 149 26 3 12 4 40 2 62
l-3 39 -217 3 -218 2 0 -374z"/>
<path d="M5975 1238 c-2 -7 -6 -40 -7 -72 l-3 -60 -40 0 -40 -1 0 -55 0 -55
40 -5 40 -5 5 -150 c6 -159 13 -187 62 -233 32 -29 78 -42 149 -42 68 0 81 12
77 72 l-3 43 -49 6 c-37 4 -55 12 -72 33 -22 25 -24 36 -24 140 0 74 4 116 12
124 7 7 38 12 69 12 63 0 69 6 69 70 0 44 -10 50 -80 50 -26 0 -52 6 -58 13
-6 7 -12 37 -14 67 l-3 55 -63 3 c-44 2 -64 -1 -67 -10z"/>
<path d="M6805 1119 c-116 -11 -197 -67 -243 -167 -20 -45 -23 -65 -20 -130 6
-120 53 -193 156 -243 72 -35 188 -33 264 4 101 50 160 142 161 251 1 168
-148 302 -318 285z m91 -139 c103 -50 120 -186 33 -265 -35 -31 -45 -35 -95
-35 -100 0 -158 56 -158 155 0 63 25 109 79 141 49 29 86 30 141 4z"/>
<path d="M2968 1104 c-60 -19 -140 -91 -169 -152 -33 -67 -33 -169 0 -236 30
-60 82 -113 135 -137 50 -22 160 -41 164 -28 2 5 16 9 30 9 35 1 98 30 139 64
77 65 112 188 83 292 -42 148 -224 238 -382 188z m182 -133 c45 -32 70 -80 70
-133 0 -94 -49 -150 -139 -156 -93 -7 -149 37 -166 131 -24 128 131 233 235
158z"/>
<path d="M4260 1111 c-35 -11 -72 -33 -87 -51 -10 -13 -12 -11 -13 13 0 21 -5
27 -22 28 -23 2 -73 1 -95 0 -10 -1 -13 -61 -13 -266 0 -297 -9 -269 80 -265
25 1 48 7 52 13 4 7 8 85 8 174 l0 162 31 36 c28 32 36 35 84 35 47 0 56 -4
79 -31 26 -30 26 -33 26 -194 0 -90 3 -170 6 -179 5 -12 21 -16 70 -16 l64 0
0 193 c0 182 -1 195 -24 244 -33 69 -84 103 -163 109 -32 2 -69 0 -83 -5z"/>
<path d="M5445 1110 c-89 -28 -143 -83 -178 -183 -26 -71 -22 -145 12 -221 59
-135 220 -193 351 -126 39 20 43 20 60 5 13 -12 33 -15 76 -13 l59 3 3 258 2
257 -24 10 c-29 11 -93 2 -119 -16 -16 -10 -24 -9 -52 7 -38 23 -145 33 -190
19z m191 -151 c38 -35 54 -72 54 -124 0 -55 -18 -93 -60 -129 -26 -22 -42 -26
-90 -26 -49 0 -64 4 -91 27 -17 15 -38 42 -45 60 -16 38 -18 109 -4 118 6 4 8
11 4 16 -9 16 72 87 103 91 48 6 103 -9 129 -33z"/>
<path d="M7410 1104 c-19 -8 -43 -22 -53 -31 -17 -16 -18 -16 -23 4 -6 23 -66
38 -109 27 -29 -7 -27 10 -30 -294 0 -107 1 -205 3 -217 3 -18 12 -22 58 -25
30 -1 59 -1 64 0 6 2 10 63 10 150 1 174 9 219 47 249 43 35 116 32 154 -6
l29 -29 0 -159 c0 -211 -3 -203 76 -203 l64 0 0 188 c0 105 -5 204 -11 227
-29 105 -171 166 -279 119z"/>
<path d="M3448 1103 l-28 -4 0 -169 c0 -93 5 -192 11 -221 29 -136 192 -200
312 -122 37 23 39 24 44 5 6 -23 46 -34 97 -25 l36 6 0 262 0 263 -22 6 c-32
8 -81 7 -96 -2 -9 -6 -13 -47 -13 -158 0 -82 -4 -166 -9 -186 -20 -71 -130
-103 -187 -54 -31 27 -32 33 -33 266 0 58 -4 110 -8 117 -8 13 -66 22 -104 16z"/>
<path d="M6343 1103 c-10 -3 -13 -67 -13 -269 l0 -264 65 0 65 0 0 264 c0 293
4 277 -68 275 -20 0 -43 -3 -49 -6z"/>
</g>
</svg>
